<mxfile host="Electron" agent="Mozilla/5.0 (Macintosh; Intel Mac OS X 10_15_7) AppleWebKit/537.36 (KHTML, like Gecko) draw.io/27.0.9 Chrome/134.0.6998.205 Electron/35.4.0 Safari/537.36" version="27.0.9">
  <diagram name="Page-1" id="aWY5vjTI4ozDuYt3A9_z">
    <mxGraphModel dx="946" dy="732" grid="1" gridSize="10" guides="1" tooltips="1" connect="1" arrows="1" fold="1" page="0" pageScale="1" pageWidth="827" pageHeight="1169" math="0" shadow="0">
      <root>
        <mxCell id="0" />
        <mxCell id="1" parent="0" />
        <mxCell id="BgqlBms3xSBx00n1lSqd-1" value="" style="rounded=0;whiteSpace=wrap;html=1;fillColor=none;dashed=1;" vertex="1" parent="1">
          <mxGeometry x="40" y="180" width="170" height="440" as="geometry" />
        </mxCell>
        <mxCell id="BgqlBms3xSBx00n1lSqd-2" value="&lt;font style=&quot;font-size: 16px;&quot;&gt;Sources&lt;/font&gt;" style="rounded=1;whiteSpace=wrap;html=1;strokeColor=none;" vertex="1" parent="1">
          <mxGeometry x="82.5" y="160" width="85" height="40" as="geometry" />
        </mxCell>
        <mxCell id="BgqlBms3xSBx00n1lSqd-3" value="" style="image;aspect=fixed;html=1;points=[];align=center;fontSize=12;image=img/lib/azure2/general/Folder_Blank.svg;" vertex="1" parent="1">
          <mxGeometry x="90.5" y="294" width="69" height="56.00000000000001" as="geometry" />
        </mxCell>
        <mxCell id="BgqlBms3xSBx00n1lSqd-4" value="&lt;font style=&quot;font-size: 18px;&quot;&gt;&lt;b&gt;CRM&lt;/b&gt;&lt;/font&gt;" style="text;html=1;align=center;verticalAlign=middle;whiteSpace=wrap;rounded=0;" vertex="1" parent="1">
          <mxGeometry x="95" y="350" width="60" height="30" as="geometry" />
        </mxCell>
        <mxCell id="BgqlBms3xSBx00n1lSqd-5" value="" style="image;aspect=fixed;html=1;points=[];align=center;fontSize=12;image=img/lib/azure2/general/Folder_Blank.svg;" vertex="1" parent="1">
          <mxGeometry x="90.5" y="482" width="69" height="56.00000000000001" as="geometry" />
        </mxCell>
        <mxCell id="BgqlBms3xSBx00n1lSqd-6" value="&lt;font style=&quot;font-size: 18px;&quot;&gt;&lt;b&gt;ERP&lt;/b&gt;&lt;/font&gt;" style="text;html=1;align=center;verticalAlign=middle;whiteSpace=wrap;rounded=0;" vertex="1" parent="1">
          <mxGeometry x="95" y="540" width="60" height="30" as="geometry" />
        </mxCell>
        <mxCell id="BgqlBms3xSBx00n1lSqd-7" value="" style="rounded=1;whiteSpace=wrap;html=1;fillColor=none;strokeColor=#d79b00;" vertex="1" parent="1">
          <mxGeometry x="270" y="230" width="190" height="390" as="geometry" />
        </mxCell>
        <mxCell id="BgqlBms3xSBx00n1lSqd-8" value="&lt;b&gt;&lt;font style=&quot;font-size: 16px;&quot;&gt;Bronze Layer&lt;/font&gt;&lt;/b&gt;" style="rounded=1;whiteSpace=wrap;html=1;fillColor=#ffe6cc;strokeColor=#d79b00;" vertex="1" parent="1">
          <mxGeometry x="270" y="180" width="190" height="40" as="geometry" />
        </mxCell>
        <mxCell id="BgqlBms3xSBx00n1lSqd-10" value="&lt;font style=&quot;font-size: 14px;&quot;&gt;crm_sales_details&lt;/font&gt;" style="rounded=1;whiteSpace=wrap;html=1;fillColor=#ffe6cc;strokeColor=#d79b00;" vertex="1" parent="1">
          <mxGeometry x="290" y="260" width="150" height="40" as="geometry" />
        </mxCell>
        <mxCell id="BgqlBms3xSBx00n1lSqd-11" value="&lt;font style=&quot;font-size: 14px;&quot;&gt;crm_cust_info&lt;/font&gt;" style="rounded=1;whiteSpace=wrap;html=1;fillColor=#ffe6cc;strokeColor=#d79b00;" vertex="1" parent="1">
          <mxGeometry x="290" y="310" width="150" height="40" as="geometry" />
        </mxCell>
        <mxCell id="BgqlBms3xSBx00n1lSqd-12" value="&lt;font style=&quot;font-size: 14px;&quot;&gt;crm_prd_info&lt;/font&gt;" style="rounded=1;whiteSpace=wrap;html=1;fillColor=#ffe6cc;strokeColor=#d79b00;" vertex="1" parent="1">
          <mxGeometry x="290" y="360" width="150" height="40" as="geometry" />
        </mxCell>
        <mxCell id="BgqlBms3xSBx00n1lSqd-13" value="&lt;font style=&quot;font-size: 14px;&quot;&gt;erp_cust_az12&lt;/font&gt;" style="rounded=1;whiteSpace=wrap;html=1;fillColor=#ffe6cc;strokeColor=#d79b00;" vertex="1" parent="1">
          <mxGeometry x="290" y="440" width="150" height="40" as="geometry" />
        </mxCell>
        <mxCell id="BgqlBms3xSBx00n1lSqd-14" value="&lt;font style=&quot;font-size: 14px;&quot;&gt;erp_loc_a101&lt;/font&gt;" style="rounded=1;whiteSpace=wrap;html=1;fillColor=#ffe6cc;strokeColor=#d79b00;" vertex="1" parent="1">
          <mxGeometry x="290" y="490" width="150" height="40" as="geometry" />
        </mxCell>
        <mxCell id="BgqlBms3xSBx00n1lSqd-15" value="&lt;font style=&quot;font-size: 14px;&quot;&gt;erp_px_cat_g1v2&lt;/font&gt;" style="rounded=1;whiteSpace=wrap;html=1;fillColor=#ffe6cc;strokeColor=#d79b00;" vertex="1" parent="1">
          <mxGeometry x="290" y="540" width="150" height="40" as="geometry" />
        </mxCell>
        <mxCell id="BgqlBms3xSBx00n1lSqd-18" value="" style="endArrow=classic;html=1;rounded=0;exitX=0.993;exitY=0.527;exitDx=0;exitDy=0;exitPerimeter=0;entryX=0;entryY=0.5;entryDx=0;entryDy=0;" edge="1" parent="1" source="BgqlBms3xSBx00n1lSqd-5" target="BgqlBms3xSBx00n1lSqd-14">
          <mxGeometry width="50" height="50" relative="1" as="geometry">
            <mxPoint x="390" y="400" as="sourcePoint" />
            <mxPoint x="440" y="350" as="targetPoint" />
          </mxGeometry>
        </mxCell>
        <mxCell id="BgqlBms3xSBx00n1lSqd-19" value="" style="endArrow=classic;html=1;rounded=0;" edge="1" parent="1" target="BgqlBms3xSBx00n1lSqd-13">
          <mxGeometry width="50" height="50" relative="1" as="geometry">
            <mxPoint x="240" y="510" as="sourcePoint" />
            <mxPoint x="440" y="350" as="targetPoint" />
            <Array as="points">
              <mxPoint x="240" y="460" />
            </Array>
          </mxGeometry>
        </mxCell>
        <mxCell id="BgqlBms3xSBx00n1lSqd-20" value="" style="endArrow=classic;html=1;rounded=0;entryX=0;entryY=0.5;entryDx=0;entryDy=0;" edge="1" parent="1" target="BgqlBms3xSBx00n1lSqd-15">
          <mxGeometry width="50" height="50" relative="1" as="geometry">
            <mxPoint x="240" y="510" as="sourcePoint" />
            <mxPoint x="230" y="610" as="targetPoint" />
            <Array as="points">
              <mxPoint x="240" y="560" />
            </Array>
          </mxGeometry>
        </mxCell>
        <mxCell id="BgqlBms3xSBx00n1lSqd-21" value="" style="endArrow=classic;html=1;rounded=0;exitX=0.993;exitY=0.527;exitDx=0;exitDy=0;exitPerimeter=0;entryX=0;entryY=0.5;entryDx=0;entryDy=0;" edge="1" parent="1">
          <mxGeometry width="50" height="50" relative="1" as="geometry">
            <mxPoint x="159.5" y="332" as="sourcePoint" />
            <mxPoint x="290.5" y="330" as="targetPoint" />
          </mxGeometry>
        </mxCell>
        <mxCell id="BgqlBms3xSBx00n1lSqd-22" value="" style="endArrow=classic;html=1;rounded=0;" edge="1" parent="1">
          <mxGeometry width="50" height="50" relative="1" as="geometry">
            <mxPoint x="240.5" y="330" as="sourcePoint" />
            <mxPoint x="290.5" y="280" as="targetPoint" />
            <Array as="points">
              <mxPoint x="240.5" y="280" />
            </Array>
          </mxGeometry>
        </mxCell>
        <mxCell id="BgqlBms3xSBx00n1lSqd-23" value="" style="endArrow=classic;html=1;rounded=0;entryX=0;entryY=0.5;entryDx=0;entryDy=0;" edge="1" parent="1">
          <mxGeometry width="50" height="50" relative="1" as="geometry">
            <mxPoint x="240.5" y="330" as="sourcePoint" />
            <mxPoint x="290.5" y="380" as="targetPoint" />
            <Array as="points">
              <mxPoint x="240.5" y="380" />
            </Array>
          </mxGeometry>
        </mxCell>
        <mxCell id="BgqlBms3xSBx00n1lSqd-24" value="" style="rounded=1;whiteSpace=wrap;html=1;fillColor=none;strokeColor=#666666;fontColor=#333333;" vertex="1" parent="1">
          <mxGeometry x="500" y="230" width="190" height="390" as="geometry" />
        </mxCell>
        <mxCell id="BgqlBms3xSBx00n1lSqd-25" value="&lt;b&gt;&lt;font style=&quot;font-size: 16px;&quot;&gt;Silver Layer&lt;/font&gt;&lt;/b&gt;" style="rounded=1;whiteSpace=wrap;html=1;fillColor=#f5f5f5;strokeColor=#666666;fontColor=#333333;" vertex="1" parent="1">
          <mxGeometry x="500" y="180" width="190" height="40" as="geometry" />
        </mxCell>
        <mxCell id="BgqlBms3xSBx00n1lSqd-26" value="&lt;font style=&quot;font-size: 14px;&quot;&gt;crm_sales_details&lt;/font&gt;" style="rounded=1;whiteSpace=wrap;html=1;fillColor=none;strokeColor=#666666;fontColor=#333333;" vertex="1" parent="1">
          <mxGeometry x="520" y="260" width="150" height="40" as="geometry" />
        </mxCell>
        <mxCell id="BgqlBms3xSBx00n1lSqd-27" value="&lt;font style=&quot;font-size: 14px;&quot;&gt;crm_cust_info&lt;/font&gt;" style="rounded=1;whiteSpace=wrap;html=1;fillColor=none;strokeColor=#666666;fontColor=#333333;" vertex="1" parent="1">
          <mxGeometry x="520" y="310" width="150" height="40" as="geometry" />
        </mxCell>
        <mxCell id="BgqlBms3xSBx00n1lSqd-28" value="&lt;font style=&quot;font-size: 14px;&quot;&gt;crm_prd_info&lt;/font&gt;" style="rounded=1;whiteSpace=wrap;html=1;fillColor=none;strokeColor=#666666;fontColor=#333333;" vertex="1" parent="1">
          <mxGeometry x="520" y="360" width="150" height="40" as="geometry" />
        </mxCell>
        <mxCell id="BgqlBms3xSBx00n1lSqd-29" value="&lt;font style=&quot;font-size: 14px;&quot;&gt;erp_cust_az12&lt;/font&gt;" style="rounded=1;whiteSpace=wrap;html=1;fillColor=none;strokeColor=#666666;fontColor=#333333;" vertex="1" parent="1">
          <mxGeometry x="520" y="440" width="150" height="40" as="geometry" />
        </mxCell>
        <mxCell id="BgqlBms3xSBx00n1lSqd-30" value="&lt;font style=&quot;font-size: 14px;&quot;&gt;erp_loc_a101&lt;/font&gt;" style="rounded=1;whiteSpace=wrap;html=1;fillColor=none;strokeColor=#666666;fontColor=#333333;" vertex="1" parent="1">
          <mxGeometry x="520" y="490" width="150" height="40" as="geometry" />
        </mxCell>
        <mxCell id="BgqlBms3xSBx00n1lSqd-31" value="&lt;font style=&quot;font-size: 14px;&quot;&gt;erp_px_cat_g1v2&lt;/font&gt;" style="rounded=1;whiteSpace=wrap;html=1;fillColor=none;strokeColor=#666666;fontColor=#333333;" vertex="1" parent="1">
          <mxGeometry x="520" y="540" width="150" height="40" as="geometry" />
        </mxCell>
        <mxCell id="BgqlBms3xSBx00n1lSqd-32" value="" style="endArrow=classic;html=1;rounded=0;exitX=0.993;exitY=0.527;exitDx=0;exitDy=0;exitPerimeter=0;" edge="1" parent="1">
          <mxGeometry width="50" height="50" relative="1" as="geometry">
            <mxPoint x="440" y="282" as="sourcePoint" />
            <mxPoint x="520" y="282" as="targetPoint" />
          </mxGeometry>
        </mxCell>
        <mxCell id="BgqlBms3xSBx00n1lSqd-33" value="" style="endArrow=classic;html=1;rounded=0;exitX=0.993;exitY=0.527;exitDx=0;exitDy=0;exitPerimeter=0;" edge="1" parent="1">
          <mxGeometry width="50" height="50" relative="1" as="geometry">
            <mxPoint x="440" y="329.5" as="sourcePoint" />
            <mxPoint x="520" y="329.5" as="targetPoint" />
          </mxGeometry>
        </mxCell>
        <mxCell id="BgqlBms3xSBx00n1lSqd-34" value="" style="endArrow=classic;html=1;rounded=0;exitX=0.993;exitY=0.527;exitDx=0;exitDy=0;exitPerimeter=0;" edge="1" parent="1">
          <mxGeometry width="50" height="50" relative="1" as="geometry">
            <mxPoint x="440" y="380" as="sourcePoint" />
            <mxPoint x="520" y="380" as="targetPoint" />
          </mxGeometry>
        </mxCell>
        <mxCell id="BgqlBms3xSBx00n1lSqd-35" value="" style="endArrow=classic;html=1;rounded=0;exitX=0.993;exitY=0.527;exitDx=0;exitDy=0;exitPerimeter=0;" edge="1" parent="1">
          <mxGeometry width="50" height="50" relative="1" as="geometry">
            <mxPoint x="440" y="459.5" as="sourcePoint" />
            <mxPoint x="520" y="459.5" as="targetPoint" />
          </mxGeometry>
        </mxCell>
        <mxCell id="BgqlBms3xSBx00n1lSqd-36" value="" style="endArrow=classic;html=1;rounded=0;exitX=0.993;exitY=0.527;exitDx=0;exitDy=0;exitPerimeter=0;" edge="1" parent="1">
          <mxGeometry width="50" height="50" relative="1" as="geometry">
            <mxPoint x="440" y="509.5" as="sourcePoint" />
            <mxPoint x="520" y="509.5" as="targetPoint" />
          </mxGeometry>
        </mxCell>
        <mxCell id="BgqlBms3xSBx00n1lSqd-37" value="" style="endArrow=classic;html=1;rounded=0;exitX=0.993;exitY=0.527;exitDx=0;exitDy=0;exitPerimeter=0;" edge="1" parent="1">
          <mxGeometry width="50" height="50" relative="1" as="geometry">
            <mxPoint x="440" y="559.5" as="sourcePoint" />
            <mxPoint x="520" y="559.5" as="targetPoint" />
          </mxGeometry>
        </mxCell>
        <mxCell id="BgqlBms3xSBx00n1lSqd-38" value="" style="rounded=1;whiteSpace=wrap;html=1;fillColor=none;strokeColor=#d6b656;" vertex="1" parent="1">
          <mxGeometry x="730" y="230" width="190" height="390" as="geometry" />
        </mxCell>
        <mxCell id="BgqlBms3xSBx00n1lSqd-39" value="&lt;b&gt;&lt;font style=&quot;font-size: 16px;&quot;&gt;Gold Layer&lt;/font&gt;&lt;/b&gt;" style="rounded=1;whiteSpace=wrap;html=1;fillColor=#fff2cc;strokeColor=#d6b656;" vertex="1" parent="1">
          <mxGeometry x="730" y="180" width="190" height="40" as="geometry" />
        </mxCell>
        <mxCell id="BgqlBms3xSBx00n1lSqd-40" value="&lt;font style=&quot;font-size: 14px;&quot;&gt;fact_sales&lt;/font&gt;" style="rounded=1;whiteSpace=wrap;html=1;fillColor=#fff2cc;strokeColor=#d6b656;" vertex="1" parent="1">
          <mxGeometry x="750" y="330" width="150" height="40" as="geometry" />
        </mxCell>
        <mxCell id="BgqlBms3xSBx00n1lSqd-41" value="&lt;font style=&quot;font-size: 14px;&quot;&gt;dim_customers&lt;/font&gt;" style="rounded=1;whiteSpace=wrap;html=1;fillColor=#fff2cc;strokeColor=#d6b656;" vertex="1" parent="1">
          <mxGeometry x="750" y="390" width="150" height="40" as="geometry" />
        </mxCell>
        <mxCell id="BgqlBms3xSBx00n1lSqd-42" value="&lt;font style=&quot;font-size: 14px;&quot;&gt;dim_products&lt;/font&gt;" style="rounded=1;whiteSpace=wrap;html=1;fillColor=#fff2cc;strokeColor=#d6b656;" vertex="1" parent="1">
          <mxGeometry x="750" y="450" width="150" height="40" as="geometry" />
        </mxCell>
        <mxCell id="BgqlBms3xSBx00n1lSqd-46" value="" style="endArrow=classic;html=1;rounded=0;entryX=0;entryY=0.5;entryDx=0;entryDy=0;exitX=1;exitY=0.5;exitDx=0;exitDy=0;jumpStyle=gap;" edge="1" parent="1" source="BgqlBms3xSBx00n1lSqd-26" target="BgqlBms3xSBx00n1lSqd-40">
          <mxGeometry width="50" height="50" relative="1" as="geometry">
            <mxPoint x="480" y="450" as="sourcePoint" />
            <mxPoint x="530" y="400" as="targetPoint" />
          </mxGeometry>
        </mxCell>
        <mxCell id="BgqlBms3xSBx00n1lSqd-47" value="" style="endArrow=classic;html=1;rounded=0;entryX=0;entryY=0.5;entryDx=0;entryDy=0;exitX=1;exitY=0.5;exitDx=0;exitDy=0;jumpStyle=gap;" edge="1" parent="1" source="BgqlBms3xSBx00n1lSqd-27" target="BgqlBms3xSBx00n1lSqd-41">
          <mxGeometry width="50" height="50" relative="1" as="geometry">
            <mxPoint x="700" y="310" as="sourcePoint" />
            <mxPoint x="780" y="380" as="targetPoint" />
          </mxGeometry>
        </mxCell>
        <mxCell id="BgqlBms3xSBx00n1lSqd-48" value="" style="endArrow=classic;html=1;rounded=0;entryX=0;entryY=0.5;entryDx=0;entryDy=0;exitX=1;exitY=0.5;exitDx=0;exitDy=0;jumpStyle=gap;" edge="1" parent="1" source="BgqlBms3xSBx00n1lSqd-28" target="BgqlBms3xSBx00n1lSqd-42">
          <mxGeometry width="50" height="50" relative="1" as="geometry">
            <mxPoint x="720" y="470" as="sourcePoint" />
            <mxPoint x="800" y="550" as="targetPoint" />
          </mxGeometry>
        </mxCell>
        <mxCell id="BgqlBms3xSBx00n1lSqd-49" value="" style="endArrow=classic;html=1;rounded=0;entryX=0;entryY=0.5;entryDx=0;entryDy=0;exitX=1;exitY=0.5;exitDx=0;exitDy=0;jumpStyle=gap;" edge="1" parent="1" source="BgqlBms3xSBx00n1lSqd-29" target="BgqlBms3xSBx00n1lSqd-41">
          <mxGeometry width="50" height="50" relative="1" as="geometry">
            <mxPoint x="710" y="630" as="sourcePoint" />
            <mxPoint x="790" y="720" as="targetPoint" />
          </mxGeometry>
        </mxCell>
        <mxCell id="BgqlBms3xSBx00n1lSqd-50" value="" style="endArrow=classic;html=1;rounded=0;exitX=1;exitY=0.5;exitDx=0;exitDy=0;jumpStyle=gap;" edge="1" parent="1" source="BgqlBms3xSBx00n1lSqd-30">
          <mxGeometry width="50" height="50" relative="1" as="geometry">
            <mxPoint x="700" y="460" as="sourcePoint" />
            <mxPoint x="750" y="410" as="targetPoint" />
          </mxGeometry>
        </mxCell>
        <mxCell id="BgqlBms3xSBx00n1lSqd-51" value="" style="endArrow=classic;html=1;rounded=0;entryX=0;entryY=0.5;entryDx=0;entryDy=0;exitX=1;exitY=0.5;exitDx=0;exitDy=0;jumpStyle=gap;" edge="1" parent="1" source="BgqlBms3xSBx00n1lSqd-31" target="BgqlBms3xSBx00n1lSqd-42">
          <mxGeometry width="50" height="50" relative="1" as="geometry">
            <mxPoint x="670" y="640" as="sourcePoint" />
            <mxPoint x="750" y="730" as="targetPoint" />
          </mxGeometry>
        </mxCell>
        <mxCell id="BgqlBms3xSBx00n1lSqd-53" value="&lt;font style=&quot;font-size: 18px;&quot;&gt;&lt;b&gt;&lt;u&gt;DATA FLOW DIAGRAM&lt;/u&gt;&lt;/b&gt;&lt;/font&gt;" style="text;html=1;align=center;verticalAlign=middle;whiteSpace=wrap;rounded=0;" vertex="1" parent="1">
          <mxGeometry x="380" y="110" width="260" height="30" as="geometry" />
        </mxCell>
      </root>
    </mxGraphModel>
  </diagram>
</mxfile>
